# Blender v2.69 (sub 0) OBJ File: ''
# www.blender.org
mtllib untitledball2.mtl
o Sphere
v -0.061803 0.190211 0.000000
v -0.117557 0.161803 0.000000
v -0.038534 0.190211 -0.048320
v -0.073296 0.161803 -0.091910
v -0.100883 0.117557 -0.126503
v -0.118595 0.061803 -0.148713
v -0.124698 -0.000000 -0.156366
v -0.118595 -0.061803 -0.148713
v -0.100883 -0.117557 -0.126503
v -0.073296 -0.161803 -0.091910
v -0.038534 -0.190211 -0.048320
v 0.013753 0.190211 -0.060254
v 0.026159 0.161803 -0.114610
v 0.036005 0.117557 -0.157747
v 0.042326 0.061803 -0.185442
v 0.044504 -0.000000 -0.194986
v 0.042326 -0.061803 -0.185442
v 0.036005 -0.117557 -0.157747
v 0.026159 -0.161803 -0.114610
v 0.013753 -0.190211 -0.060254
v 0.055683 0.190211 -0.026816
v 0.105915 0.161803 -0.051006
v 0.145780 0.117557 -0.070204
v 0.171375 0.061803 -0.082530
v 0.180194 -0.000000 -0.086777
v 0.171375 -0.061803 -0.082530
v 0.145780 -0.117557 -0.070204
v 0.105915 -0.161803 -0.051006
v 0.055683 -0.190211 -0.026816
v 0.055683 0.190211 0.026816
v 0.105915 0.161803 0.051006
v 0.145780 0.117557 0.070204
v 0.171375 0.061803 0.082530
v 0.180194 -0.000000 0.086777
v 0.171375 -0.061803 0.082530
v 0.145780 -0.117557 0.070204
v 0.105915 -0.161803 0.051006
v 0.055683 -0.190211 0.026816
v 0.013753 0.190211 0.060254
v 0.026159 0.161803 0.114610
v 0.036005 0.117557 0.157747
v 0.042326 0.061803 0.185442
v 0.044504 -0.000000 0.194986
v 0.042326 -0.061803 0.185442
v 0.036005 -0.117557 0.157747
v 0.026159 -0.161803 0.114610
v 0.013753 -0.190211 0.060254
v 0.000000 0.200000 0.000000
v -0.038534 0.190211 0.048320
v -0.073296 0.161803 0.091910
v -0.100883 0.117557 0.126503
v -0.118595 0.061803 0.148713
v -0.124698 -0.000000 0.156366
v -0.118595 -0.061803 0.148713
v -0.100883 -0.117557 0.126503
v -0.073296 -0.161803 0.091910
v -0.038534 -0.190211 0.048320
v 0.000000 -0.200000 0.000000
v -0.161803 0.117557 -0.000000
v -0.190211 0.061803 -0.000000
v -0.200000 -0.000000 -0.000000
v -0.190211 -0.061803 -0.000000
v -0.161803 -0.117557 -0.000000
v -0.117557 -0.161803 -0.000000
v -0.061803 -0.190211 -0.000000
vn -0.443514 0.870446 -0.213585
vn -0.109539 -0.870446 -0.479922
vn -0.165319 -0.669362 -0.724309
vn -0.202230 -0.417205 -0.886026
vn -0.220289 -0.141268 -0.965151
vn -0.220289 0.141268 -0.965151
vn -0.202230 0.417205 -0.886027
vn -0.165319 0.669362 -0.724309
vn -0.109539 0.870446 -0.479922
vn 0.306922 -0.870446 -0.384867
vn 0.463213 -0.669362 -0.580851
vn 0.566635 -0.417205 -0.710538
vn 0.617237 -0.141268 -0.773991
vn 0.617237 0.141268 -0.773991
vn 0.566635 0.417205 -0.710538
vn 0.463213 0.669362 -0.580851
vn 0.306921 0.870446 -0.384867
vn 0.492264 -0.870446 0.000000
vn 0.742936 -0.669362 0.000000
vn 0.908812 -0.417205 0.000000
vn 0.989971 -0.141268 0.000000
vn 0.989971 0.141268 0.000000
vn 0.908812 0.417205 0.000000
vn 0.742936 0.669362 0.000000
vn 0.492264 0.870446 0.000000
vn 0.306921 -0.870446 0.384867
vn 0.463213 -0.669362 0.580851
vn 0.566635 -0.417205 0.710538
vn 0.617237 -0.141268 0.773991
vn 0.617237 0.141268 0.773991
vn 0.566635 0.417205 0.710538
vn 0.463213 0.669362 0.580851
vn 0.306921 0.870446 0.384867
vn -0.109539 -0.870446 0.479922
vn -0.165319 -0.669362 0.724309
vn -0.202230 -0.417205 0.886026
vn -0.220289 -0.141268 0.965151
vn -0.220289 0.141268 0.965151
vn -0.202230 0.417205 0.886027
vn -0.165319 0.669362 0.724309
vn -0.109539 0.870446 0.479922
vn -0.443514 -0.870446 0.213585
vn -0.669362 -0.669362 0.322348
vn -0.818812 -0.417205 0.394319
vn -0.891933 -0.141269 0.429532
vn -0.891933 0.141269 0.429532
vn -0.818812 0.417205 0.394319
vn -0.155992 -0.984898 -0.075122
vn -0.443514 -0.870446 -0.213585
vn -0.669362 -0.669362 -0.322348
vn -0.818812 -0.417205 -0.394319
vn -0.891933 -0.141268 -0.429533
vn -0.891933 0.141268 -0.429533
vn -0.818812 0.417205 -0.394319
vn -0.669362 0.669363 -0.322348
vn -0.155992 0.984897 -0.075122
vn -0.038527 -0.984898 -0.168797
vn -0.038527 0.984897 -0.168797
vn 0.107950 -0.984897 -0.135366
vn 0.107950 0.984898 -0.135364
vn 0.173138 -0.984898 0.000000
vn 0.173138 0.984898 -0.000001
vn 0.107950 -0.984897 0.135365
vn 0.107950 0.984897 0.135365
vn -0.038527 -0.984898 0.168797
vn -0.038527 0.984897 0.168798
vn -0.155992 -0.984897 0.075122
vn -0.669362 0.669362 0.322348
vn -0.443514 0.870446 0.213585
vn -0.155992 0.984898 0.075122
usemtl None
s off
f 2//1 1//1 3//1 4//1
f 11//2 10//2 19//2 20//2
f 10//3 9//3 18//3 19//3
f 9//4 8//4 17//4 18//4
f 8//5 7//5 16//5 17//5
f 7//6 6//6 15//6 16//6
f 6//7 5//7 14//7 15//7
f 5//8 4//8 13//8 14//8
f 4//9 3//9 12//9 13//9
f 20//10 19//10 28//10 29//10
f 19//11 18//11 27//11 28//11
f 18//12 17//12 26//12 27//12
f 17//13 16//13 25//13 26//13
f 16//14 15//14 24//14 25//14
f 15//15 14//15 23//15 24//15
f 14//16 13//16 22//16 23//16
f 13//17 12//17 21//17 22//17
f 29//18 28//18 37//18 38//18
f 28//19 27//19 36//19 37//19
f 27//20 26//20 35//20 36//20
f 26//21 25//21 34//21 35//21
f 25//22 24//22 33//22 34//22
f 24//23 23//23 32//23 33//23
f 23//24 22//24 31//24 32//24
f 22//25 21//25 30//25 31//25
f 38//26 37//26 46//26 47//26
f 37//27 36//27 45//27 46//27
f 36//28 35//28 44//28 45//28
f 35//29 34//29 43//29 44//29
f 34//30 33//30 42//30 43//30
f 33//31 32//31 41//31 42//31
f 32//32 31//32 40//32 41//32
f 31//33 30//33 39//33 40//33
f 47//34 46//34 56//34 57//34
f 46//35 45//35 55//35 56//35
f 45//36 44//36 54//36 55//36
f 44//37 43//37 53//37 54//37
f 43//38 42//38 52//38 53//38
f 42//39 41//39 51//39 52//39
f 41//40 40//40 50//40 51//40
f 40//41 39//41 49//41 50//41
f 57//42 56//42 64//42 65//42
f 56//43 55//43 63//43 64//43
f 55//44 54//44 62//44 63//44
f 54//45 53//45 61//45 62//45
f 53//46 52//46 60//46 61//46
f 52//47 51//47 59//47 60//47
f 58//48 65//48 11//48
f 65//49 64//49 10//49 11//49
f 64//50 63//50 9//50 10//50
f 63//51 62//51 8//51 9//51
f 62//52 61//52 7//52 8//52
f 61//53 60//53 6//53 7//53
f 60//54 59//54 5//54 6//54
f 59//55 2//55 4//55 5//55
f 1//56 48//56 3//56
f 58//57 11//57 20//57
f 3//58 48//58 12//58
f 58//59 20//59 29//59
f 12//60 48//60 21//60
f 58//61 29//61 38//61
f 21//62 48//62 30//62
f 58//63 38//63 47//63
f 30//64 48//64 39//64
f 58//65 47//65 57//65
f 39//66 48//66 49//66
f 58//67 57//67 65//67
f 51//68 50//68 2//68 59//68
f 50//69 49//69 1//69 2//69
f 49//70 48//70 1//70
